# xmcd
#
# Track frame offsets: 
#        150
#        29036
#        57967
#        88193
#        118916
#        153018
#        175018
#        202144
#        236049
#        259000
#
# Disc length: 3768 seconds
#
# Revision: 1
# Processed by: cddbd v1.5.2PL0 Copyright (c) Steve Scherf et al.
# Submitted via: ExactAudioCopy v0.95b4
#
DISCID=8a0eb60a
DTITLE=Yellowjackets - Lifecycle
DYEAR=2008
DGENRE=Fusion
TTITLE0=Falken's Maze
TTITLE1=Country Living
TTITLE2=Double Nickel
TTITLE3=Dreams Go
TTITLE4=Measure Of A Man
TTITLE5=Yahoo
TTITLE6=I Wonder
TTITLE7=Three Circles
TTITLE8=Claire's Closet
TTITLE9=Lazaro
EXTD=YEAR: 2008
EXTT0=
EXTT1=
EXTT2=
EXTT3=
EXTT4=
EXTT5=
EXTT6=
EXTT7=
EXTT8=
EXTT9=
PLAYORDER=
